<svg width="100" height="85" viewBox="0 0 100 85" fill="none" xmlns="http://www.w3.org/2000/svg">
<mask id="mask0_240_26" style="mask-type:luminance" maskUnits="userSpaceOnUse" x="34" y="31" width="32" height="33">
<path d="M35.2458 31.989H64.8334V63.119H35.2458V31.989Z" fill="white" stroke="white"/>
</mask>
<g mask="url(#mask0_240_26)">
<path d="M35.2458 57.7642V32.4898H42.3802V37.4741V38.5536L43.2036 37.8554L44.4921 36.7628L44.4927 36.7623L49.9189 32.1467L55.3501 36.7624L55.3502 36.7625L64.7531 44.755V56.2053H57.6156V47.3854V47.1542L57.4394 47.0044L50.2425 40.8888L49.9187 40.6137L49.5949 40.8889L42.5564 46.8716L42.3802 47.0214V47.2526V56.7053V57.2053H42.8802H56.6156V63.1222H41.5494L35.2458 57.7642Z" fill="#2CAF51" stroke="black"/>
</g>
<mask id="mask1_240_26" style="mask-type:luminance" maskUnits="userSpaceOnUse" x="34" y="21" width="8" height="10">
<path d="M34.9958 21.6266H41.6958V29.9666H34.9958V21.6266Z" fill="white" stroke="white" stroke-width="0.5"/>
</mask>
<g mask="url(#mask1_240_26)">
<path d="M38.7601 29.447C38.6029 29.6116 38.4704 29.7452 38.374 29.8406C38.2776 29.7452 38.145 29.6116 37.9879 29.447C37.6513 29.0945 37.2032 28.6014 36.7557 28.0377C36.3076 27.4731 35.8642 26.8429 35.5339 26.2163C35.2014 25.5854 34.9958 24.9811 34.9958 24.4624C34.9958 22.9344 36.4693 21.6285 38.374 21.6285C40.2787 21.6285 41.7521 22.9344 41.7521 24.4624C41.7521 24.9811 41.5466 25.5854 41.214 26.2163C40.8838 26.8429 40.4404 27.4731 39.9922 28.0377C39.5448 28.6014 39.0966 29.0945 38.7601 29.447ZM36.8281 24.4624C36.8281 25.2443 37.5598 25.8138 38.374 25.8138C39.1882 25.8138 39.9198 25.2443 39.9198 24.4624C39.9198 23.6795 39.188 23.1109 38.374 23.1109C37.5599 23.1109 36.8281 23.6795 36.8281 24.4624Z" fill="#646464" stroke="black" stroke-width="0.5"/>
</g>
</svg>
